P3
# Created by Image Processor
# Image Processor application by Will Brandon and Ella Isgar, Northeastern University
16 16
255
159
40
37
159
40
37
159
40
37
169
67
64
169
67
64
159
40
37
159
40
37
159
40
37
159
41
34
159
40
37
169
67
64
159
40
37
160
42
38
159
40
37
159
41
34
149
17
0
159
40
37
159
40
37
159
41
39
168
66
65
169
67
64
159
40
37
160
42
38
159
40
37
160
41
37
160
42
38
169
67
64
159
40
37
159
41
34
159
40
37
159
40
37
159
40
37
167
68
64
169
67
64
177
89
87
187
108
106
184
108
105
170
67
64
159
40
37
160
41
37
159
40
37
157
38
34
169
67
66
158
40
32
159
41
39
159
39
35
159
40
37
159
40
37
169
68
61
177
89
89
186
106
107
184
107
107
255
183
112
255
177
90
254
167
66
255
168
68
255
157
40
255
159
39
255
156
39
255
159
42
159
40
37
160
41
37
159
40
37
159
40
37
177
89
87
177
89
87
186
107
103
255
184
111
255
169
66
255
167
70
255
168
68
255
167
67
255
167
70
255
146
0
255
148
1
254
158
38
255
156
40
159
41
34
160
41
37
149
17
0
168
66
62
167
68
64
177
89
87
255
178
93
255
168
68
253
168
68
255
168
68
255
252
94
255
176
91
255
169
69
255
147
0
255
147
3
254
158
40
254
157
42
254
158
40
254
147
0
170
67
64
169
67
64
255
176
91
255
184
111
255
178
91
255
167
70
255
176
94
255
252
94
255
176
91
254
167
66
254
166
69
255
168
68
254
157
39
255
159
39
254
158
40
255
157
40
255
168
68
255
176
91
255
177
90
255
168
68
94
179
255
94
179
255
255
176
91
255
176
91
254
252
72
254
166
69
73
171
255
74
169
255
255
177
94
255
168
68
255
168
68
254
158
40
254
158
40
255
168
68
255
167
70
255
168
68
255
168
68
255
176
91
255
176
91
255
168
68
253
251
71
253
168
68
255
168
68
255
177
93
255
177
93
255
168
68
255
168
68
255
168
68
255
159
42
255
168
68
253
168
68
255
167
67
255
169
69
255
177
91
255
177
91
254
177
91
254
252
73
254
252
72
254
169
69
255
176
91
255
176
91
255
168
68
255
168
68
255
168
68
255
147
0
254
158
38
255
168
68
254
167
66
255
167
67
255
176
91
254
176
90
255
251
94
254
252
72
254
252
72
254
157
39
253
168
68
254
183
110
255
176
94
255
177
91
254
158
40
255
148
1
255
147
0
255
168
68
255
169
69
253
168
65
255
177
93
255
184
108
255
184
111
255
178
93
255
176
91
255
168
68
255
177
91
255
168
68
254
169
66
254
167
66
254
167
66
255
147
0
255
147
0
255
147
0
254
158
40
255
73
68
254
95
91
253
111
109
255
94
91
255
93
92
254
95
91
255
94
91
253
74
67
255
76
69
255
167
70
255
168
68
255
169
69
255
147
0
255
147
0
255
147
0
255
147
0
254
159
38
255
158
43
255
159
42
254
158
40
254
158
40
255
168
68
255
168
68
255
157
40
255
167
70
253
168
65
253
167
66
253
157
39
255
147
0
255
147
3
255
147
0
255
149
0
255
157
40
254
158
40
254
158
40
254
158
40
254
158
40
255
168
68
255
168
68
254
158
40
254
158
40
254
157
42
254
158
38
255
147
0
255
149
0
255
147
0
255
147
0
255
147
0
255
159
42
254
158
40
254
158
40
254
157
39
254
157
42
254
158
40
254
158
40
254
158
40
254
158
40
254
158
40
255
147
0
255
148
0
